<svg width="1440" height="900" viewBox="0 0 1440 900" fill="none" xmlns="http://www.w3.org/2000/svg">
<g clip-path="url(#clip0_142_8085)">
<rect width="1440" height="900" fill="white"/>
<mask id="mask0_142_8085" style="mask-type:alpha" maskUnits="userSpaceOnUse" x="696" y="-83" width="706" height="1130">
<path d="M696.934 1046.65L1319.45 941.145L1401.89 369.001L1390.78 172.131L1094.86 -82.9448L823.931 -21.0217L739.702 569.418L696.934 1046.65Z" fill="url(#paint0_linear_142_8085)"/>
</mask>
<g mask="url(#mask0_142_8085)">
</g>
<mask id="mask1_142_8085" style="mask-type:alpha" maskUnits="userSpaceOnUse" x="672" y="-81" width="794" height="1117">
<path d="M818.518 -80.3779C1096.49 -40.2662 1451.08 10.9588 1465.08 11.8577L1319.01 1035.8L672.448 943.562L818.518 -80.3779Z" fill="url(#paint1_linear_142_8085)"/>
</mask>
<g mask="url(#mask1_142_8085)">
<path d="M1315.32 429.57C1298.85 545.057 1185.42 627.95 1096.15 615.215C1006.88 602.48 896.392 539.018 914.068 415.11C922.827 353.708 873.787 270.641 928.649 204.032C984.497 136.226 1103.84 170.481 1148.88 176.905C1238.15 189.641 1331.8 314.083 1315.32 429.57Z" fill="#FF80DB"/>
<g filter="url(#filter0_f_142_8085)">
<path d="M1307.88 427.094C1290.21 550.952 1191.97 627.383 1115.24 616.436C1038.5 605.489 944.465 544.394 962.133 420.536C970.889 359.159 928.229 277.034 976.844 209.564C1026.33 140.881 1128.58 172.69 1167.29 178.212C1244.03 189.159 1325.55 303.237 1307.88 427.094Z" fill="#FF80DB"/>
</g>
<g filter="url(#filter1_f_142_8085)">
<path d="M1307.34 430.844C1287.53 569.664 1167.84 653.96 1073.23 640.464C978.624 626.968 861.944 556.882 881.747 418.062C891.56 349.27 828.961 255.114 887.732 180.104C947.558 103.747 1081.89 142.213 1129.62 149.021C1224.22 162.517 1327.14 292.024 1307.34 430.844Z" fill="#FF80DB"/>
</g>
<g filter="url(#filter2_f_142_8085)">
<path d="M1293.85 445.268C1246.19 613.35 1103.24 737.814 992.514 722.019C881.791 706.224 774.502 602.158 798.253 435.671C810.022 353.169 704.475 229.896 773.596 139.742C843.958 47.9687 991.735 92.2 1047.59 100.168C1158.31 115.963 1349.06 250.555 1293.85 445.268Z" fill="#FF80DB"/>
</g>
<g filter="url(#filter3_f_142_8085)">
<path d="M1240.8 496.622C1215.22 675.885 1050.55 809.86 942.298 794.417C834.043 778.974 730.376 668.613 755.949 489.35C768.621 400.517 742.694 286.763 811.658 188.912C881.862 89.3028 1026.02 134.795 1080.63 142.585C1188.89 158.028 1266.37 317.36 1240.8 496.622Z" fill="#FF80DB"/>
</g>
<g filter="url(#filter4_f_142_8085)">
<path d="M1225.12 423.406C1201.99 585.501 1036.18 704.233 925.454 688.437C814.731 672.642 707.115 570.871 730.239 408.776C741.698 328.45 726.158 226.718 794.91 139.149C864.897 50.0081 1012.76 93.6409 1068.61 101.609C1179.34 117.404 1248.24 261.311 1225.12 423.406Z" fill="#FF80DB"/>
</g>
</g>
<mask id="mask2_142_8085" style="mask-type:alpha" maskUnits="userSpaceOnUse" x="427" y="53" width="1105" height="710">
<path d="M1531.97 730.543L1348.57 53.5953L813.954 55.4201L632.498 99.86L427.527 470.772L522.225 762.781L1082.55 760.561L1531.97 730.543Z" fill="url(#paint2_linear_142_8085)"/>
</mask>
<g mask="url(#mask2_142_8085)">
<mask id="mask3_142_8085" style="mask-type:alpha" maskUnits="userSpaceOnUse" x="469" y="71" width="1004" height="679">
<path d="M471.913 749.628C471.085 433.149 470.312 87.7211 469.228 71.9638L1469.8 72.23L1472.49 749.894L471.913 749.628Z" fill="url(#paint3_linear_142_8085)"/>
</mask>
<g mask="url(#mask3_142_8085)">
<path d="M873.652 141.502C983.25 141.068 1075.84 254.046 1076.25 355.661C1076.65 457.275 1032.81 590.802 915.225 591.268C856.954 591.499 786.472 659.706 717.041 609.378C646.362 558.147 661.838 419.493 661.635 368.234C661.232 266.619 764.055 141.937 873.652 141.502Z" fill="#6562FF"/>
<g filter="url(#filter5_f_142_8085)">
<path d="M872.374 150.212C989.914 149.746 1074.38 237.409 1074.7 316.299C1075.01 395.189 1031.07 498.894 913.531 499.36C855.284 499.591 784.779 554.659 715.421 515.647C644.817 475.935 660.409 368.275 660.251 328.479C659.938 249.589 754.833 150.678 872.374 150.212Z" fill="#6562FF"/>
</g>
<g filter="url(#filter6_f_142_8085)">
<path d="M875.933 150.196C1007.67 149.674 1102.39 257.957 1102.77 355.37C1103.16 452.782 1053.96 580.816 922.221 581.338C856.937 581.596 777.975 658.636 700.22 610.434C621.069 561.366 638.463 420.197 638.269 371.057C637.883 273.644 744.193 150.718 875.933 150.196Z" fill="#6562FF"/>
</g>
<g filter="url(#filter7_f_142_8085)">
<path d="M891.318 181.956C1054.07 207.726 1189.36 346.86 1189.85 472.891C1190.35 598.922 1108.34 735.496 950.344 736.122C872.049 736.433 771.945 874.192 678.676 811.799C583.731 748.286 592.2 518.064 591.948 454.487C591.449 328.456 702.775 152.103 891.318 181.956Z" fill="#6562FF"/>
</g>
<g filter="url(#filter8_f_142_8085)">
<path d="M934.044 213.728C1104.16 213.054 1263.41 374.805 1263.9 498.027C1264.39 621.249 1176.03 754.81 1005.91 755.484C921.604 755.818 819.432 803.25 719.03 742.285C616.824 680.225 566.094 424.922 565.847 362.763C565.359 239.541 763.924 214.402 934.044 213.728Z" fill="#6562FF"/>
</g>
<g filter="url(#filter9_f_142_8085)">
<path d="M1012.6 262.603C1188.41 261.906 1340.41 427.389 1340.91 553.42C1341.41 679.451 1250.09 816.062 1074.29 816.759C987.169 817.104 856.414 647.116 752.661 584.766C647.044 521.295 670.321 349.308 670.069 285.732C669.569 159.7 836.8 263.3 1012.6 262.603Z" fill="#6562FF"/>
</g>
<g filter="url(#filter10_f_142_8085)">
<path d="M880.294 243.085C1034.12 242.475 1167.21 408.033 1167.71 534.064C1168.21 660.095 1088.37 796.661 934.543 797.27C858.314 797.572 765.89 831.464 675.075 769.062C582.628 705.538 602.91 533.564 602.658 469.987C602.159 343.956 726.466 243.694 880.294 243.085Z" fill="#6562FF"/>
</g>
</g>
</g>
<mask id="mask4_142_8085" style="mask-type:alpha" maskUnits="userSpaceOnUse" x="376" y="-152" width="1122" height="1051">
<path d="M740.588 -151.322L376.146 377.739L811.156 819.403L966.854 898.714L1386.74 717.605L1497.95 452.894L1099.6 112.335L740.588 -151.322Z" fill="url(#paint4_linear_142_8085)"/>
</mask>
<g mask="url(#mask4_142_8085)">
<mask id="mask5_142_8085" style="mask-type:alpha" maskUnits="userSpaceOnUse" x="346" y="-159" width="1180" height="1150">
<path d="M1525.56 492.94C1332.91 717.672 1064.29 978.956 1055.44 990.782L346.694 379.65L737.7 -158.061L1525.56 492.94Z" fill="url(#paint5_linear_142_8085)"/>
</mask>
<g mask="url(#mask5_142_8085)">
<path d="M869.615 678.492C791.7 611.881 795.079 475.297 856.839 403.057C918.599 330.817 1031.19 262.98 1114.78 334.448C1156.21 369.864 1247.79 364.575 1266.26 442.627C1285.05 522.08 1189.43 610.867 1158.27 647.309C1096.51 719.549 947.53 745.104 869.615 678.492Z" fill="#4737FF"/>
<g filter="url(#filter11_f_142_8085)">
<path d="M875.831 673.105C792.269 601.666 785.948 487.98 833.896 431.895C881.845 375.81 976.296 329.163 1059.86 400.602C1101.27 436.004 1184.84 440.038 1210.16 510.028C1235.94 581.274 1159.16 648.031 1134.97 676.323C1087.02 732.408 959.393 744.545 875.831 673.105Z" fill="#4737FF"/>
</g>
<g filter="url(#filter12_f_142_8085)">
<path d="M873.308 670.946C779.652 590.876 778.664 456.326 837.87 387.073C897.076 317.82 1010.11 257.148 1103.77 337.218C1150.18 376.896 1253.16 370.527 1278.82 452.155C1304.94 535.249 1206.42 624.647 1176.55 659.582C1117.34 728.834 966.965 751.015 873.308 670.946Z" fill="#4737FF"/>
</g>
<g filter="url(#filter13_f_142_8085)">
<path d="M881.801 639.05C782.223 521.415 771.329 340.236 847.93 250.637C924.53 161.039 1066.03 114.353 1178.35 210.381C1234.01 257.967 1389.05 221.487 1417.04 322.642C1445.52 425.614 1298.95 583.556 1260.31 628.754C1183.71 718.353 997.156 775.325 881.801 639.05Z" fill="#4737FF"/>
</g>
<g filter="url(#filter14_f_142_8085)">
<path d="M870.925 590.45C749.983 487.053 735.919 275.216 810.812 187.615C885.704 100.014 1029.86 59.3376 1150.8 162.734C1210.74 213.972 1312.09 242.753 1346 347.252C1380.52 453.628 1260.57 665.486 1222.79 709.677C1147.9 797.278 991.867 693.847 870.925 590.45Z" fill="#4737FF"/>
</g>
<g filter="url(#filter15_f_142_8085)">
<path d="M845.11 507.856C720.127 401.005 713.473 190.947 790.073 101.348C866.673 11.7495 1014.79 -29.2809 1139.77 77.57C1201.7 130.52 1190.55 330.795 1225.99 438.322C1262.07 547.781 1140.56 655.42 1101.92 700.619C1025.32 790.217 970.092 614.707 845.11 507.856Z" fill="#4737FF"/>
</g>
</g>
</g>
</g>
<defs>
<filter id="filter0_f_142_8085" x="949.777" y="162.705" width="363.896" height="458.126" filterUnits="userSpaceOnUse" color-interpolation-filters="sRGB">
<feFlood flood-opacity="0" result="BackgroundImageFix"/>
<feBlend mode="normal" in="SourceGraphic" in2="BackgroundImageFix" result="shape"/>
<feGaussianBlur stdDeviation="1.67814" result="effect1_foregroundBlur_142_8085"/>
</filter>
<filter id="filter1_f_142_8085" x="850.489" y="121.568" width="471.064" height="532.054" filterUnits="userSpaceOnUse" color-interpolation-filters="sRGB">
<feFlood flood-opacity="0" result="BackgroundImageFix"/>
<feBlend mode="normal" in="SourceGraphic" in2="BackgroundImageFix" result="shape"/>
<feGaussianBlur stdDeviation="5.87347" result="effect1_foregroundBlur_142_8085"/>
</filter>
<filter id="filter2_f_142_8085" x="733.162" y="65.7509" width="587.283" height="674.402" filterUnits="userSpaceOnUse" color-interpolation-filters="sRGB">
<feFlood flood-opacity="0" result="BackgroundImageFix"/>
<feBlend mode="normal" in="SourceGraphic" in2="BackgroundImageFix" result="shape"/>
<feGaussianBlur stdDeviation="8.39068" result="effect1_foregroundBlur_142_8085"/>
</filter>
<filter id="filter3_f_142_8085" x="706.714" y="80.163" width="584.301" height="760.776" filterUnits="userSpaceOnUse" color-interpolation-filters="sRGB">
<feFlood flood-opacity="0" result="BackgroundImageFix"/>
<feBlend mode="normal" in="SourceGraphic" in2="BackgroundImageFix" result="shape"/>
<feGaussianBlur stdDeviation="22.6548" result="effect1_foregroundBlur_142_8085"/>
</filter>
<filter id="filter4_f_142_8085" x="675.056" y="31.9055" width="606.546" height="709.964" filterUnits="userSpaceOnUse" color-interpolation-filters="sRGB">
<feFlood flood-opacity="0" result="BackgroundImageFix"/>
<feBlend mode="normal" in="SourceGraphic" in2="BackgroundImageFix" result="shape"/>
<feGaussianBlur stdDeviation="26.0111" result="effect1_foregroundBlur_142_8085"/>
</filter>
<filter id="filter5_f_142_8085" x="655.111" y="146.428" width="423.369" height="386.968" filterUnits="userSpaceOnUse" color-interpolation-filters="sRGB">
<feFlood flood-opacity="0" result="BackgroundImageFix"/>
<feBlend mode="normal" in="SourceGraphic" in2="BackgroundImageFix" result="shape"/>
<feGaussianBlur stdDeviation="1.89102" result="effect1_foregroundBlur_142_8085"/>
</filter>
<filter id="filter6_f_142_8085" x="623.538" y="136.957" width="492.474" height="502.571" filterUnits="userSpaceOnUse" color-interpolation-filters="sRGB">
<feFlood flood-opacity="0" result="BackgroundImageFix"/>
<feBlend mode="normal" in="SourceGraphic" in2="BackgroundImageFix" result="shape"/>
<feGaussianBlur stdDeviation="6.61856" result="effect1_foregroundBlur_142_8085"/>
</filter>
<filter id="filter7_f_142_8085" x="572.939" y="159.7" width="635.828" height="687.225" filterUnits="userSpaceOnUse" color-interpolation-filters="sRGB">
<feFlood flood-opacity="0" result="BackgroundImageFix"/>
<feBlend mode="normal" in="SourceGraphic" in2="BackgroundImageFix" result="shape"/>
<feGaussianBlur stdDeviation="9.45509" result="effect1_foregroundBlur_142_8085"/>
</filter>
<filter id="filter8_f_142_8085" x="514.788" y="162.668" width="800.172" height="661.766" filterUnits="userSpaceOnUse" color-interpolation-filters="sRGB">
<feFlood flood-opacity="0" result="BackgroundImageFix"/>
<feBlend mode="normal" in="SourceGraphic" in2="BackgroundImageFix" result="shape"/>
<feGaussianBlur stdDeviation="25.5288" result="effect1_foregroundBlur_142_8085"/>
</filter>
<filter id="filter9_f_142_8085" x="541.358" y="96.5098" width="926.254" height="846.948" filterUnits="userSpaceOnUse" color-interpolation-filters="sRGB">
<feFlood flood-opacity="0" result="BackgroundImageFix"/>
<feBlend mode="normal" in="SourceGraphic" in2="BackgroundImageFix" result="shape"/>
<feGaussianBlur stdDeviation="63.3491" result="effect1_foregroundBlur_142_8085"/>
</filter>
<filter id="filter10_f_142_8085" x="542.318" y="184.461" width="684.015" height="680.887" filterUnits="userSpaceOnUse" color-interpolation-filters="sRGB">
<feFlood flood-opacity="0" result="BackgroundImageFix"/>
<feBlend mode="normal" in="SourceGraphic" in2="BackgroundImageFix" result="shape"/>
<feGaussianBlur stdDeviation="29.3108" result="effect1_foregroundBlur_142_8085"/>
</filter>
<filter id="filter11_f_142_8085" x="796.561" y="356.98" width="426.131" height="372.921" filterUnits="userSpaceOnUse" color-interpolation-filters="sRGB">
<feFlood flood-opacity="0" result="BackgroundImageFix"/>
<feBlend mode="normal" in="SourceGraphic" in2="BackgroundImageFix" result="shape"/>
<feGaussianBlur stdDeviation="3.65387" result="effect1_foregroundBlur_142_8085"/>
</filter>
<filter id="filter12_f_142_8085" x="771.868" y="273.583" width="536.889" height="473.95" filterUnits="userSpaceOnUse" color-interpolation-filters="sRGB">
<feFlood flood-opacity="0" result="BackgroundImageFix"/>
<feBlend mode="normal" in="SourceGraphic" in2="BackgroundImageFix" result="shape"/>
<feGaussianBlur stdDeviation="12.7886" result="effect1_foregroundBlur_142_8085"/>
</filter>
<filter id="filter13_f_142_8085" x="761.194" y="120.69" width="696.029" height="636.27" filterUnits="userSpaceOnUse" color-interpolation-filters="sRGB">
<feFlood flood-opacity="0" result="BackgroundImageFix"/>
<feBlend mode="normal" in="SourceGraphic" in2="BackgroundImageFix" result="shape"/>
<feGaussianBlur stdDeviation="18.2694" result="effect1_foregroundBlur_142_8085"/>
</filter>
<filter id="filter14_f_142_8085" x="666.127" y="2.84351" width="784.692" height="838.441" filterUnits="userSpaceOnUse" color-interpolation-filters="sRGB">
<feFlood flood-opacity="0" result="BackgroundImageFix"/>
<feBlend mode="normal" in="SourceGraphic" in2="BackgroundImageFix" result="shape"/>
<feGaussianBlur stdDeviation="49.3273" result="effect1_foregroundBlur_142_8085"/>
</filter>
<filter id="filter15_f_142_8085" x="495.404" y="-230.971" width="982.009" height="1201.05" filterUnits="userSpaceOnUse" color-interpolation-filters="sRGB">
<feFlood flood-opacity="0" result="BackgroundImageFix"/>
<feBlend mode="normal" in="SourceGraphic" in2="BackgroundImageFix" result="shape"/>
<feGaussianBlur stdDeviation="122.405" result="effect1_foregroundBlur_142_8085"/>
</filter>
<linearGradient id="paint0_linear_142_8085" x1="1080.78" y1="393.496" x2="910.425" y2="112.543" gradientUnits="userSpaceOnUse">
<stop stop-color="#C4C4C4"/>
<stop offset="1" stop-color="#C4C4C4" stop-opacity="0"/>
</linearGradient>
<linearGradient id="paint1_linear_142_8085" x1="1301.58" y1="425.359" x2="841.541" y2="374.613" gradientUnits="userSpaceOnUse">
<stop stop-color="#C4C4C4"/>
<stop offset="1" stop-color="#C4C4C4" stop-opacity="0"/>
</linearGradient>
<linearGradient id="paint2_linear_142_8085" x1="1051.26" y1="303.949" x2="549.685" y2="564.582" gradientUnits="userSpaceOnUse">
<stop stop-color="#C4C4C4" stop-opacity="0.7"/>
<stop offset="0.943414" stop-color="#C4C4C4" stop-opacity="0"/>
</linearGradient>
<linearGradient id="paint3_linear_142_8085" x1="872.59" y1="260.062" x2="830.623" y2="675.762" gradientUnits="userSpaceOnUse">
<stop stop-color="#C4C4C4"/>
<stop offset="1" stop-color="#C4C4C4" stop-opacity="0"/>
</linearGradient>
<linearGradient id="paint4_linear_142_8085" x1="842.965" y1="454.954" x2="1116.24" y2="652.274" gradientUnits="userSpaceOnUse">
<stop stop-color="#C4C4C4"/>
<stop offset="0.943414" stop-color="#C4C4C4" stop-opacity="0"/>
</linearGradient>
<linearGradient id="paint5_linear_142_8085" x1="942.752" y1="595.149" x2="1226.31" y2="326.249" gradientUnits="userSpaceOnUse">
<stop stop-color="#C4C4C4"/>
<stop offset="1" stop-color="#C4C4C4" stop-opacity="0"/>
</linearGradient>
<clipPath id="clip0_142_8085">
<rect width="1440" height="900" fill="white"/>
</clipPath>
</defs>
</svg>
