<svg width="1440" height="900" viewBox="0 0 1440 900" fill="none" xmlns="http://www.w3.org/2000/svg">
<g clip-path="url(#clip0_142_8428)">
<rect width="1440" height="900" fill="white"/>
<mask id="mask0_142_8428" style="mask-type:alpha" maskUnits="userSpaceOnUse" x="362" y="3" width="1298" height="854">
<path d="M362.428 12.1709L540.188 827.426L1175.54 856.981L1393.79 814.944L1659.35 386.376L1564.16 33.7825L898.226 3.17152L362.428 12.1709Z" fill="url(#paint0_linear_142_8428)"/>
</mask>
<g mask="url(#mask0_142_8428)">
<mask id="mask1_142_8428" style="mask-type:alpha" maskUnits="userSpaceOnUse" x="397" y="-8" width="1227" height="866">
<path d="M1623.16 52.398C1605.36 428.498 1585.79 838.993 1586.14 857.78L397.24 798.092L434.261 -7.29078L1623.16 52.398Z" fill="url(#paint1_linear_142_8428)"/>
</mask>
<g mask="url(#mask1_142_8428)">
<path d="M1109.71 751.154C979.461 745.167 876.14 605.428 881.692 484.662C887.243 363.897 947.254 207.837 1087 214.261C1156.26 217.444 1244.05 140.581 1323.57 204.502C1404.51 269.571 1377.89 433.405 1375.09 494.325C1369.54 615.091 1239.97 757.142 1109.71 751.154Z" fill="#C49FFF"/>
<g filter="url(#filter0_f_142_8428)">
<path d="M1111.75 740.88C972.058 734.458 876.89 625.282 881.2 531.524C885.51 437.765 943.871 317.147 1083.56 323.568C1152.79 326.75 1239.83 265.5 1319.93 315.971C1401.47 367.348 1376.55 494.348 1374.38 541.644C1370.07 635.403 1251.44 747.301 1111.75 740.88Z" fill="#C49FFF"/>
</g>
<g filter="url(#filter1_f_142_8428)">
<path d="M1107.52 740.688C950.951 733.491 844.835 599.205 850.156 483.434C855.478 367.662 921.534 218.448 1078.1 225.645C1155.69 229.211 1254.09 142.355 1343.62 204.244C1434.76 267.245 1405.71 433.955 1403.03 492.356C1397.7 608.128 1264.09 747.885 1107.52 740.688Z" fill="#C49FFF"/>
</g>
<g filter="url(#filter2_f_142_8428)">
<path d="M1091.12 702.038C899.26 661.759 746.769 488.409 753.655 338.624C760.54 188.84 866.096 31.4249 1053.87 40.0563C1146.92 44.3336 1274.04 -113.417 1381.16 -33.7454C1490.21 47.3571 1466.49 320.412 1463.02 395.971C1456.13 545.755 1313.38 748.698 1091.12 702.038Z" fill="#C49FFF"/>
</g>
<g filter="url(#filter3_f_142_8428)">
<path d="M1042.24 661.75C840.055 652.456 660.428 450.808 667.16 304.363C673.892 157.918 786.811 4.45857 988.993 13.7523C1089.18 18.3578 1213.4 -31.9392 1329.09 46.4591C1446.85 126.266 1491.98 432.636 1488.58 506.51C1481.85 652.955 1244.42 671.043 1042.24 661.75Z" fill="#C49FFF"/>
</g>
<g filter="url(#filter4_f_142_8428)">
<path d="M951.793 599.013C742.857 589.409 572.058 383.757 578.943 233.973C585.828 84.1886 702.443 -72.7181 911.38 -63.1139C1014.92 -58.3545 1160.2 151.389 1279.78 231.633C1401.51 313.319 1363.65 516.297 1360.18 591.856C1353.29 741.641 1160.73 608.617 951.793 599.013Z" fill="#C49FFF"/>
</g>
<g filter="url(#filter5_f_142_8428)">
<path d="M1107.85 630.057C925.032 621.653 776.717 417.035 783.603 267.251C790.488 117.466 893.456 -40.0677 1076.28 -31.664C1166.87 -27.4996 1278.7 -62.2864 1382.91 17.2507C1488.99 98.2167 1454.68 301.359 1451.21 376.918C1444.33 526.702 1290.67 638.46 1107.85 630.057Z" fill="#C49FFF"/>
</g>
</g>
</g>
<mask id="mask2_142_8428" style="mask-type:alpha" maskUnits="userSpaceOnUse" x="386" y="-155" width="1329" height="1262">
<path d="M1250.45 1106.99L1714.89 499.969L1224.2 -50.6436L1043.9 -154.121L534.23 36.1621L386.385 344.102L839.509 772.403L1250.45 1106.99Z" fill="url(#paint2_linear_142_8428)"/>
</mask>
<g mask="url(#mask2_142_8428)">
<mask id="mask3_142_8428" style="mask-type:alpha" maskUnits="userSpaceOnUse" x="355" y="-269" width="1395" height="1385">
<path d="M355.951 294.88C598.203 39.2775 932.88 -255.249 944.101 -268.776L1749.99 499.448L1253.48 1115.17L355.951 294.88Z" fill="url(#paint3_linear_142_8428)"/>
</mask>
<g mask="url(#mask3_142_8428)">
<path d="M1146.38 113.325C1235.01 197.099 1222.89 359.191 1145.21 441.365C1067.54 523.538 929.735 597.464 834.644 507.582C787.522 463.041 678.385 463.891 661.079 370.052C643.461 274.528 762.355 174.703 801.537 133.25C879.209 51.0767 1057.75 29.5516 1146.38 113.325Z" fill="#7737FF"/>
<g filter="url(#filter6_f_142_8428)">
<path d="M1138.67 119.357C1233.72 209.202 1234.49 344.662 1174.19 408.459C1113.88 472.256 998.886 522.079 903.834 432.234C856.731 387.712 757.66 377.958 731.727 293.292C705.328 207.105 800.526 132.339 830.945 100.156C891.247 36.3595 1043.62 29.5117 1138.67 119.357Z" fill="#7737FF"/>
</g>
<g filter="url(#filter7_f_142_8428)">
<path d="M1141.54 122.073C1248.08 222.772 1241.27 382.708 1166.81 461.483C1092.35 540.258 954.435 605.644 847.9 504.945C795.107 455.044 672.359 456.501 646.715 357.986C620.611 257.7 742.982 157.321 780.543 117.582C855.003 38.8071 1035.01 21.3744 1141.54 122.073Z" fill="#7737FF"/>
</g>
<g filter="url(#filter8_f_142_8428)">
<path d="M1129.56 159.468C1240.9 305.156 1243.09 521.085 1146.76 623.004C1050.42 724.922 879.518 771.999 751.751 651.231C688.436 591.385 502.048 625.531 474.798 503.675C447.057 379.63 630.592 200.655 679.189 149.242C775.524 47.3235 1000.58 -9.30262 1129.56 159.468Z" fill="#7737FF"/>
</g>
<g filter="url(#filter9_f_142_8428)">
<path d="M1139.6 217.862C1277.17 347.898 1281.31 600.445 1187.12 700.092C1092.93 799.739 919.23 839.517 781.658 709.481C713.484 645.042 594.763 604.83 560.67 478.649C525.965 350.201 681.058 105.581 728.571 55.3138C822.759 -44.3329 1002.03 87.8266 1139.6 217.862Z" fill="#7737FF"/>
</g>
<g filter="url(#filter10_f_142_8428)">
<path d="M1165.37 317.534C1307.54 451.914 1302.98 701.907 1206.64 803.826C1110.31 905.745 931.881 945.71 789.713 811.33C719.261 744.738 744.398 507.426 708.669 377.556C672.298 245.353 823.062 124.662 871.659 73.2485C967.994 -28.6703 1023.2 183.154 1165.37 317.534Z" fill="#7737FF"/>
</g>
</g>
</g>
</g>
<defs>
<filter id="filter0_f_142_8428" x="876.559" y="291.45" width="507.579" height="454.193" filterUnits="userSpaceOnUse" color-interpolation-filters="sRGB">
<feFlood flood-opacity="0" result="BackgroundImageFix"/>
<feBlend mode="normal" in="SourceGraphic" in2="BackgroundImageFix" result="shape"/>
<feGaussianBlur stdDeviation="2.24977" result="effect1_foregroundBlur_142_8428"/>
</filter>
<filter id="filter1_f_142_8428" x="834.216" y="166.18" width="591.055" height="590.522" filterUnits="userSpaceOnUse" color-interpolation-filters="sRGB">
<feFlood flood-opacity="0" result="BackgroundImageFix"/>
<feBlend mode="normal" in="SourceGraphic" in2="BackgroundImageFix" result="shape"/>
<feGaussianBlur stdDeviation="7.8742" result="effect1_foregroundBlur_142_8428"/>
</filter>
<filter id="filter2_f_142_8428" x="730.932" y="-78.7526" width="759.138" height="810.101" filterUnits="userSpaceOnUse" color-interpolation-filters="sRGB">
<feFlood flood-opacity="0" result="BackgroundImageFix"/>
<feBlend mode="normal" in="SourceGraphic" in2="BackgroundImageFix" result="shape"/>
<feGaussianBlur stdDeviation="11.2489" result="effect1_foregroundBlur_142_8428"/>
</filter>
<filter id="filter3_f_142_8428" x="606.233" y="-58.6716" width="943.273" height="783.184" filterUnits="userSpaceOnUse" color-interpolation-filters="sRGB">
<feFlood flood-opacity="0" result="BackgroundImageFix"/>
<feBlend mode="normal" in="SourceGraphic" in2="BackgroundImageFix" result="shape"/>
<feGaussianBlur stdDeviation="30.3719" result="effect1_foregroundBlur_142_8428"/>
</filter>
<filter id="filter4_f_142_8428" x="428.007" y="-214.268" width="1091.16" height="1027.63" filterUnits="userSpaceOnUse" color-interpolation-filters="sRGB">
<feFlood flood-opacity="0" result="BackgroundImageFix"/>
<feBlend mode="normal" in="SourceGraphic" in2="BackgroundImageFix" result="shape"/>
<feGaussianBlur stdDeviation="75.3673" result="effect1_foregroundBlur_142_8428"/>
</filter>
<filter id="filter5_f_142_8428" x="713.63" y="-105.481" width="815.345" height="805.725" filterUnits="userSpaceOnUse" color-interpolation-filters="sRGB">
<feFlood flood-opacity="0" result="BackgroundImageFix"/>
<feBlend mode="normal" in="SourceGraphic" in2="BackgroundImageFix" result="shape"/>
<feGaussianBlur stdDeviation="34.8715" result="effect1_foregroundBlur_142_8428"/>
</filter>
<filter id="filter6_f_142_8428" x="718.46" y="43.3537" width="505.72" height="446.419" filterUnits="userSpaceOnUse" color-interpolation-filters="sRGB">
<feFlood flood-opacity="0" result="BackgroundImageFix"/>
<feBlend mode="normal" in="SourceGraphic" in2="BackgroundImageFix" result="shape"/>
<feGaussianBlur stdDeviation="4.34706" result="effect1_foregroundBlur_142_8428"/>
</filter>
<filter id="filter7_f_142_8428" x="612.666" y="22.0081" width="639.986" height="564.677" filterUnits="userSpaceOnUse" color-interpolation-filters="sRGB">
<feFlood flood-opacity="0" result="BackgroundImageFix"/>
<feBlend mode="normal" in="SourceGraphic" in2="BackgroundImageFix" result="shape"/>
<feGaussianBlur stdDeviation="15.2147" result="effect1_foregroundBlur_142_8428"/>
</filter>
<filter id="filter8_f_142_8428" x="428.488" y="8.64363" width="831.189" height="757.775" filterUnits="userSpaceOnUse" color-interpolation-filters="sRGB">
<feFlood flood-opacity="0" result="BackgroundImageFix"/>
<feBlend mode="normal" in="SourceGraphic" in2="BackgroundImageFix" result="shape"/>
<feGaussianBlur stdDeviation="21.7353" result="effect1_foregroundBlur_142_8428"/>
</filter>
<filter id="filter9_f_142_8428" x="438.284" y="-96.9947" width="930.443" height="1006.25" filterUnits="userSpaceOnUse" color-interpolation-filters="sRGB">
<feFlood flood-opacity="0" result="BackgroundImageFix"/>
<feBlend mode="normal" in="SourceGraphic" in2="BackgroundImageFix" result="shape"/>
<feGaussianBlur stdDeviation="58.6853" result="effect1_foregroundBlur_142_8428"/>
</filter>
<filter id="filter10_f_142_8428" x="411.813" y="-244.835" width="1155.42" height="1433.16" filterUnits="userSpaceOnUse" color-interpolation-filters="sRGB">
<feFlood flood-opacity="0" result="BackgroundImageFix"/>
<feBlend mode="normal" in="SourceGraphic" in2="BackgroundImageFix" result="shape"/>
<feGaussianBlur stdDeviation="145.627" result="effect1_foregroundBlur_142_8428"/>
</filter>
<linearGradient id="paint0_linear_142_8428" x1="908.317" y1="547.59" x2="1519.77" y2="267.66" gradientUnits="userSpaceOnUse">
<stop stop-color="#C4C4C4" stop-opacity="0.7"/>
<stop offset="0.943414" stop-color="#C4C4C4" stop-opacity="0"/>
</linearGradient>
<linearGradient id="paint1_linear_142_8428" x1="1118.01" y1="610.341" x2="1192.55" y2="118.883" gradientUnits="userSpaceOnUse">
<stop stop-color="#C4C4C4"/>
<stop offset="1" stop-color="#C4C4C4" stop-opacity="0"/>
</linearGradient>
<linearGradient id="paint2_linear_142_8428" x1="1164.78" y1="380.52" x2="851.774" y2="129.842" gradientUnits="userSpaceOnUse">
<stop stop-color="#C4C4C4"/>
<stop offset="0.943414" stop-color="#C4C4C4" stop-opacity="0"/>
</linearGradient>
<linearGradient id="paint3_linear_142_8428" x1="1054.53" y1="208.016" x2="701.638" y2="510.705" gradientUnits="userSpaceOnUse">
<stop stop-color="#C4C4C4"/>
<stop offset="1" stop-color="#C4C4C4" stop-opacity="0"/>
</linearGradient>
<clipPath id="clip0_142_8428">
<rect width="1440" height="900" fill="white"/>
</clipPath>
</defs>
</svg>
