<svg width="1440" height="900" viewBox="0 0 1440 900" fill="none" xmlns="http://www.w3.org/2000/svg">
<g clip-path="url(#clip0_142_4835)">
<rect width="1440" height="900" fill="white"/>
<g opacity="0.4" filter="url(#filter0_f_142_4835)">
<ellipse cx="1069.62" cy="588.977" rx="310.839" ry="175.302" transform="rotate(-31.6763 1069.62 588.977)" fill="#789EFF"/>
</g>
<mask id="mask0_142_4835" style="mask-type:alpha" maskUnits="userSpaceOnUse" x="112" y="71" width="1429" height="1213">
<path d="M1183.69 71.0655L1540.36 531.333L535.51 1283.82L112.487 768.552L1183.69 71.0655Z" fill="url(#paint0_linear_142_4835)"/>
</mask>
<g mask="url(#mask0_142_4835)">
<mask id="mask1_142_4835" style="mask-type:alpha" maskUnits="userSpaceOnUse" x="50" y="22" width="1653" height="1347">
<path d="M358.562 1368.18C226.481 1162.56 58.0629 900.214 50.0428 890.906L1393.97 22.1693L1702.49 499.447L358.562 1368.18Z" fill="url(#paint1_linear_142_4835)"/>
</mask>
<g mask="url(#mask1_142_4835)">
<path d="M739.155 624.44C880.666 532.965 1031.19 504.86 1059.48 548.615C1087.76 592.369 1067.59 686.818 915.763 784.963C840.524 833.598 768.077 921.9 664.602 957.894C559.269 994.535 541.385 921.485 527.117 899.413C498.834 855.659 597.643 715.916 739.155 624.44Z" fill="#789EFF"/>
<g filter="url(#filter1_f_142_4835)">
<path d="M745.926 630.795C897.693 532.69 1033.43 504.43 1057.74 542.04C1082.05 579.65 1056.69 666.02 904.926 764.125C829.718 812.74 755.285 897.888 653.825 936.919C550.542 976.651 538.067 911.986 525.803 893.014C501.491 855.404 594.158 728.9 745.926 630.795Z" fill="#789EFF"/>
</g>
<g filter="url(#filter2_f_142_4835)">
<path d="M750.527 619.965C920.629 510.009 1075.8 483.036 1105.77 529.404C1135.75 575.772 1110.9 678.108 940.8 788.064C856.506 842.553 777.766 945.234 662.692 986.881C545.55 1029.28 525.317 947.129 510.197 923.738C480.224 877.37 580.425 729.922 750.527 619.965Z" fill="#789EFF"/>
</g>
<g filter="url(#filter3_f_142_4835)">
<path d="M773.707 610.407C991.074 486.025 1241.15 385.415 1238.99 487.981C1274.07 542.249 1205.4 669.82 1001.4 801.691C900.301 867.039 808.577 1010.19 671.001 1060.81C530.952 1112.33 510.909 1020.35 493.213 992.97C424.699 929.397 521.9 754.498 773.707 610.407Z" fill="#789EFF"/>
</g>
<g filter="url(#filter4_f_142_4835)">
<path d="M858.664 596.849C1078.32 454.858 1312.62 402.539 1346.92 455.597C1381.22 508.655 1303.52 640.206 1083.86 782.196C975.011 852.559 855.934 958.242 709.53 1015.42C560.496 1073.62 543.653 981.906 526.352 955.14C492.054 902.082 639.006 738.839 858.664 596.849Z" fill="#789EFF"/>
</g>
<g filter="url(#filter5_f_142_4835)">
<path d="M904.765 565.655C1131.76 418.92 1426.49 361.221 1461.57 415.489C1496.65 469.757 1415.96 605.094 1188.97 751.828C1076.48 824.542 953.286 933.541 802.172 992.906C648.343 1053.34 398.428 1005.08 380.732 977.707C345.652 923.439 677.769 712.389 904.765 565.655Z" fill="#789EFF"/>
</g>
<g filter="url(#filter6_f_142_4835)">
<path d="M781.536 664.497C976.262 498.353 1207.01 352.525 1225.14 495.712C1243.26 638.899 1201.68 731.375 1003.06 859.767C904.628 923.392 794.451 1015.08 660.043 1063.65C523.22 1113.09 502.444 1021.57 484.748 994.199C418.433 906.782 531.385 775.603 781.536 664.497Z" fill="#789EFF"/>
</g>
</g>
</g>
<g filter="url(#filter7_f_142_4835)">
<circle cx="1138.09" cy="423.967" r="235.484" fill="#E2C55C"/>
</g>
<g filter="url(#filter8_f_142_4835)">
<circle cx="1183.82" cy="583.099" r="208.647" fill="#ED7BEF"/>
</g>
<mask id="mask2_142_4835" style="mask-type:alpha" maskUnits="userSpaceOnUse" x="483" y="-411" width="1014" height="986">
<path d="M1496.3 232.119L939.988 -395.405L483.795 -411L548.356 419.046L964.523 574.784L1496.3 232.119Z" fill="black"/>
</mask>
<g mask="url(#mask2_142_4835)">
<mask id="mask3_142_4835" style="mask-type:alpha" maskUnits="userSpaceOnUse" x="76" y="-619" width="1522" height="1367">
<path d="M76.2559 212.054L867.419 -618.512L1597.87 154.666C1456.06 352.752 1170.64 748.694 1163.4 747.779C1156.17 746.864 435.624 390.248 76.2559 212.054Z" fill="url(#paint2_linear_142_4835)"/>
</mask>
<g mask="url(#mask3_142_4835)">
<mask id="mask4_142_4835" style="mask-type:alpha" maskUnits="userSpaceOnUse" x="235" y="-441" width="1315" height="1279">
<path d="M728.078 -440.758C516.434 -192.656 246.491 123.878 235.069 135.48L1056.09 837.919L1549.1 261.681L728.078 -440.758Z" fill="url(#paint3_linear_142_4835)"/>
</mask>
<g mask="url(#mask4_142_4835)">
<path d="M679.273 349.818C743.74 404.973 873.87 362.601 941.94 283.039C1010.01 203.477 1073.24 76.7396 1004.08 17.5624C969.801 -11.7629 973.687 -100.554 899.066 -95.7749C823.106 -90.9098 739.692 25.6674 705.354 65.8025C637.284 145.364 614.806 294.662 679.273 349.818Z" fill="#9B78FF"/>
<g filter="url(#filter9_f_142_4835)">
<path d="M680.241 348.301C754.317 411.679 891.613 358.528 967.172 270.213C1042.73 181.898 1113.94 42.0886 1039.86 -21.2887C1003.15 -52.6953 1011.06 -152.162 929.818 -145.496C847.119 -138.711 754.161 -9.62378 716.045 34.9268C640.486 123.242 606.164 284.924 680.241 348.301Z" fill="#9B78FF"/>
</g>
<g filter="url(#filter10_f_142_4835)">
<path d="M694.04 336.994C697.069 400.02 924.566 372.291 996.28 288.471C1067.99 204.651 1129 66.3291 1041.26 -8.73918C997.78 -45.9392 1001.47 -157.127 914.101 -159.583C825.162 -162.083 733.245 -30.4425 697.069 11.8407C625.355 95.661 608.655 336.994 694.04 336.994Z" fill="#9B78FF"/>
</g>
<g filter="url(#filter11_f_142_4835)">
<path d="M730.857 310.942C843.328 373.166 1011.39 337.165 1091.53 243.495C1171.67 149.826 1209.74 7.01848 1116.81 -72.4941C1070.75 -111.896 1098.9 -264.638 1004.27 -264.806C907.947 -264.977 811.311 -126.388 770.884 -79.1363C690.744 14.533 600.567 238.859 730.857 310.942Z" fill="#9B78FF"/>
</g>
<g filter="url(#filter12_f_142_4835)">
<path d="M783.731 352.717C883.057 367.923 1130.87 372.264 1213.41 275.784C1295.96 179.304 1098.5 -97.6586 998.435 -183.273C948.846 -225.699 920.139 -314.032 820.118 -316.393C718.301 -318.796 682.563 -140.694 645.251 9.01325C595.704 207.814 653.361 372.47 783.731 352.717Z" fill="#9B78FF"/>
</g>
<g filter="url(#filter13_f_142_4835)">
<path d="M741.001 271.522C844.412 359.996 1216.63 327.472 1301.05 228.793C1385.48 130.113 1226.58 -78.8347 1123.17 -167.309C1071.93 -211.153 1002.1 -407.501 899.169 -410.45C794.394 -413.452 764.357 -308.472 721.768 -258.693C637.341 -160.013 637.59 183.047 741.001 271.522Z" fill="#9B78FF"/>
</g>
<g filter="url(#filter14_f_142_4835)">
<path d="M741.001 271.522C844.412 359.996 1216.63 327.472 1301.05 228.793C1385.48 130.113 1226.58 -78.8347 1123.17 -167.309C1071.93 -211.153 1002.1 -407.501 899.169 -410.45C794.394 -413.452 764.357 -308.472 721.768 -258.693C637.341 -160.013 637.59 183.047 741.001 271.522Z" fill="#9B78FF"/>
</g>
<g filter="url(#filter15_f_142_4835)">
<path d="M741.001 271.522C844.412 359.996 1216.63 327.472 1301.05 228.793C1385.48 130.113 1226.58 -78.8347 1123.17 -167.309C1071.93 -211.153 1002.1 -407.501 899.169 -410.45C794.394 -413.452 764.357 -308.472 721.768 -258.693C637.341 -160.013 637.59 183.047 741.001 271.522Z" fill="#9B78FF"/>
</g>
<g filter="url(#filter16_f_142_4835)">
<path d="M741.001 271.522C844.412 359.996 1216.63 327.472 1301.05 228.793C1385.48 130.113 1226.58 -78.8347 1123.17 -167.309C1071.93 -211.153 1002.1 -407.501 899.169 -410.45C794.394 -413.452 764.357 -308.472 721.768 -258.693C637.341 -160.013 637.59 183.047 741.001 271.522Z" fill="#9B78FF"/>
</g>
<g filter="url(#filter17_f_142_4835)">
<path d="M723.819 340.764C814.303 418.179 1003.46 354.787 1087.88 256.107C1172.31 157.427 1216.3 10.2991 1125.82 -67.1161C1080.98 -105.479 1031.61 -190.111 936.293 -186.549C839.265 -182.923 767.179 -57.2523 724.59 -7.47322C640.163 91.2065 633.335 263.349 723.819 340.764Z" fill="#9B78FF"/>
</g>
</g>
</g>
<mask id="mask5_142_4835" style="mask-type:alpha" maskUnits="userSpaceOnUse" x="426" y="-197" width="706" height="683">
<path d="M1131.86 -90.1913L883.361 -196.618L426.105 298.292L832.072 485.005L1131.86 -90.1913Z" fill="url(#paint4_linear_142_4835)"/>
</mask>
<g mask="url(#mask5_142_4835)">
<g opacity="0.58">
<mask id="mask6_142_4835" style="mask-type:alpha" maskUnits="userSpaceOnUse" x="361" y="-274" width="954" height="1078">
<path d="M1314.89 -184.527L828.019 -273.033L361.979 526.402L794.116 803.844L1314.89 -184.527Z" fill="url(#paint5_linear_142_4835)"/>
</mask>
<g mask="url(#mask6_142_4835)">
<path d="M685.203 350.484C691.115 198.812 784.48 72.8149 851.423 1.88743L897.616 -33.8252L938.776 -58.9865L1042.46 -30.6775L1012.89 141.181L842.304 405.792L741.381 448.032C727.059 452.999 695.771 440.442 685.203 350.484Z" fill="#9B78FF"/>
<g filter="url(#filter18_f_142_4835)">
<path d="M674.788 349.954C684.432 239.808 714.854 209.164 767.003 154.383L813.196 118.67L854.355 93.5088L958.042 121.818L1021.54 136.964L850.949 401.575L750.026 443.815C735.704 448.782 685.357 439.913 674.788 349.954Z" fill="#9B78FF"/>
</g>
<g filter="url(#filter19_f_142_4835)">
<path d="M659.553 378.324C699.169 177.931 834.972 41.1392 887.121 -13.6422L911.811 -41.1048L940.988 -65.4172L1044.67 -37.1082L1015.1 134.75L844.516 399.362L727.89 402.826C713.567 407.793 670.121 468.282 659.553 378.324Z" fill="#9B78FF"/>
</g>
<g filter="url(#filter20_f_142_4835)">
<path d="M660.943 387.344C731.794 149.879 844.064 14.7149 896.213 -40.0665L920.902 -67.5291L950.079 -91.8415L1094.83 -100.563L987.545 168.603L845.967 529.762L719.112 534.565C704.789 539.532 671.512 477.303 660.943 387.344Z" fill="#9B78FF"/>
</g>
</g>
</g>
</g>
</g>
</g>
<defs>
<filter id="filter0_f_142_4835" x="663.034" y="241.429" width="813.165" height="695.096" filterUnits="userSpaceOnUse" color-interpolation-filters="sRGB">
<feFlood flood-opacity="0" result="BackgroundImageFix"/>
<feBlend mode="normal" in="SourceGraphic" in2="BackgroundImageFix" result="shape"/>
<feGaussianBlur stdDeviation="63.2068" result="effect1_foregroundBlur_142_4835"/>
</filter>
<filter id="filter1_f_142_4835" x="517.756" y="521.836" width="552.206" height="431.947" filterUnits="userSpaceOnUse" color-interpolation-filters="sRGB">
<feFlood flood-opacity="0" result="BackgroundImageFix"/>
<feBlend mode="normal" in="SourceGraphic" in2="BackgroundImageFix" result="shape"/>
<feGaussianBlur stdDeviation="2.09455" result="effect1_foregroundBlur_142_4835"/>
</filter>
<filter id="filter2_f_142_4835" x="490.262" y="493.051" width="641.054" height="520.451" filterUnits="userSpaceOnUse" color-interpolation-filters="sRGB">
<feFlood flood-opacity="0" result="BackgroundImageFix"/>
<feBlend mode="normal" in="SourceGraphic" in2="BackgroundImageFix" result="shape"/>
<feGaussianBlur stdDeviation="7.33093" result="effect1_foregroundBlur_142_4835"/>
</filter>
<filter id="filter3_f_142_4835" x="450.924" y="424.689" width="817.76" height="672.466" filterUnits="userSpaceOnUse" color-interpolation-filters="sRGB">
<feFlood flood-opacity="0" result="BackgroundImageFix"/>
<feBlend mode="normal" in="SourceGraphic" in2="BackgroundImageFix" result="shape"/>
<feGaussianBlur stdDeviation="10.4728" result="effect1_foregroundBlur_142_4835"/>
</filter>
<filter id="filter4_f_142_4835" x="464.836" y="378.75" width="946.409" height="712.206" filterUnits="userSpaceOnUse" color-interpolation-filters="sRGB">
<feFlood flood-opacity="0" result="BackgroundImageFix"/>
<feBlend mode="normal" in="SourceGraphic" in2="BackgroundImageFix" result="shape"/>
<feGaussianBlur stdDeviation="28.2765" result="effect1_foregroundBlur_142_4835"/>
</filter>
<filter id="filter5_f_142_4835" x="237.829" y="255.088" width="1371.94" height="907.221" filterUnits="userSpaceOnUse" color-interpolation-filters="sRGB">
<feFlood flood-opacity="0" result="BackgroundImageFix"/>
<feBlend mode="normal" in="SourceGraphic" in2="BackgroundImageFix" result="shape"/>
<feGaussianBlur stdDeviation="70.1675" result="effect1_foregroundBlur_142_4835"/>
</filter>
<filter id="filter6_f_142_4835" x="401.143" y="372.561" width="892.763" height="770.419" filterUnits="userSpaceOnUse" color-interpolation-filters="sRGB">
<feFlood flood-opacity="0" result="BackgroundImageFix"/>
<feBlend mode="normal" in="SourceGraphic" in2="BackgroundImageFix" result="shape"/>
<feGaussianBlur stdDeviation="32.4656" result="effect1_foregroundBlur_142_4835"/>
</filter>
<filter id="filter7_f_142_4835" x="600.214" y="-113.905" width="1075.74" height="1075.74" filterUnits="userSpaceOnUse" color-interpolation-filters="sRGB">
<feFlood flood-opacity="0" result="BackgroundImageFix"/>
<feBlend mode="normal" in="SourceGraphic" in2="BackgroundImageFix" result="shape"/>
<feGaussianBlur stdDeviation="151.194" result="effect1_foregroundBlur_142_4835"/>
</filter>
<filter id="filter8_f_142_4835" x="672.786" y="72.0636" width="1022.07" height="1022.07" filterUnits="userSpaceOnUse" color-interpolation-filters="sRGB">
<feFlood flood-opacity="0" result="BackgroundImageFix"/>
<feBlend mode="normal" in="SourceGraphic" in2="BackgroundImageFix" result="shape"/>
<feGaussianBlur stdDeviation="151.194" result="effect1_foregroundBlur_142_4835"/>
</filter>
<filter id="filter9_f_142_4835" x="636.879" y="-147.987" width="436.403" height="526.237" filterUnits="userSpaceOnUse" color-interpolation-filters="sRGB">
<feFlood flood-opacity="0" result="BackgroundImageFix"/>
<feBlend mode="normal" in="SourceGraphic" in2="BackgroundImageFix" result="shape"/>
<feGaussianBlur stdDeviation="1.08513" result="effect1_foregroundBlur_142_4835"/>
</filter>
<filter id="filter10_f_142_4835" x="628.816" y="-167.214" width="463.424" height="546.249" filterUnits="userSpaceOnUse" color-interpolation-filters="sRGB">
<feFlood flood-opacity="0" result="BackgroundImageFix"/>
<feBlend mode="normal" in="SourceGraphic" in2="BackgroundImageFix" result="shape"/>
<feGaussianBlur stdDeviation="3.79794" result="effect1_foregroundBlur_142_4835"/>
</filter>
<filter id="filter11_f_142_4835" x="654.244" y="-275.658" width="527.788" height="628.449" filterUnits="userSpaceOnUse" color-interpolation-filters="sRGB">
<feFlood flood-opacity="0" result="BackgroundImageFix"/>
<feBlend mode="normal" in="SourceGraphic" in2="BackgroundImageFix" result="shape"/>
<feGaussianBlur stdDeviation="5.42563" result="effect1_foregroundBlur_142_4835"/>
</filter>
<filter id="filter12_f_142_4835" x="598.327" y="-345.715" width="664.071" height="736.061" filterUnits="userSpaceOnUse" color-interpolation-filters="sRGB">
<feFlood flood-opacity="0" result="BackgroundImageFix"/>
<feBlend mode="normal" in="SourceGraphic" in2="BackgroundImageFix" result="shape"/>
<feGaussianBlur stdDeviation="14.6492" result="effect1_foregroundBlur_142_4835"/>
</filter>
<filter id="filter13_f_142_4835" x="578.524" y="-492.745" width="828.611" height="898.1" filterUnits="userSpaceOnUse" color-interpolation-filters="sRGB">
<feFlood flood-opacity="0" result="BackgroundImageFix"/>
<feBlend mode="normal" in="SourceGraphic" in2="BackgroundImageFix" result="shape"/>
<feGaussianBlur stdDeviation="41.1157" result="effect1_foregroundBlur_142_4835"/>
</filter>
<filter id="filter14_f_142_4835" x="578.524" y="-492.745" width="828.611" height="898.1" filterUnits="userSpaceOnUse" color-interpolation-filters="sRGB">
<feFlood flood-opacity="0" result="BackgroundImageFix"/>
<feBlend mode="normal" in="SourceGraphic" in2="BackgroundImageFix" result="shape"/>
<feGaussianBlur stdDeviation="41.1157" result="effect1_foregroundBlur_142_4835"/>
</filter>
<filter id="filter15_f_142_4835" x="578.524" y="-492.745" width="828.611" height="898.1" filterUnits="userSpaceOnUse" color-interpolation-filters="sRGB">
<feFlood flood-opacity="0" result="BackgroundImageFix"/>
<feBlend mode="normal" in="SourceGraphic" in2="BackgroundImageFix" result="shape"/>
<feGaussianBlur stdDeviation="41.1157" result="effect1_foregroundBlur_142_4835"/>
</filter>
<filter id="filter16_f_142_4835" x="578.524" y="-492.745" width="828.611" height="898.1" filterUnits="userSpaceOnUse" color-interpolation-filters="sRGB">
<feFlood flood-opacity="0" result="BackgroundImageFix"/>
<feBlend mode="normal" in="SourceGraphic" in2="BackgroundImageFix" result="shape"/>
<feGaussianBlur stdDeviation="41.1157" result="effect1_foregroundBlur_142_4835"/>
</filter>
<filter id="filter17_f_142_4835" x="624.943" y="-220.297" width="584.596" height="629.246" filterUnits="userSpaceOnUse" color-interpolation-filters="sRGB">
<feFlood flood-opacity="0" result="BackgroundImageFix"/>
<feBlend mode="normal" in="SourceGraphic" in2="BackgroundImageFix" result="shape"/>
<feGaussianBlur stdDeviation="16.8195" result="effect1_foregroundBlur_142_4835"/>
</filter>
<filter id="filter18_f_142_4835" x="648.603" y="67.3224" width="399.121" height="403.768" filterUnits="userSpaceOnUse" color-interpolation-filters="sRGB">
<feFlood flood-opacity="0" result="BackgroundImageFix"/>
<feBlend mode="normal" in="SourceGraphic" in2="BackgroundImageFix" result="shape"/>
<feGaussianBlur stdDeviation="13.0932" result="effect1_foregroundBlur_142_4835"/>
</filter>
<filter id="filter19_f_142_4835" x="633.366" y="-91.6034" width="437.494" height="545.104" filterUnits="userSpaceOnUse" color-interpolation-filters="sRGB">
<feFlood flood-opacity="0" result="BackgroundImageFix"/>
<feBlend mode="normal" in="SourceGraphic" in2="BackgroundImageFix" result="shape"/>
<feGaussianBlur stdDeviation="13.0932" result="effect1_foregroundBlur_142_4835"/>
</filter>
<filter id="filter20_f_142_4835" x="586.574" y="-174.932" width="582.622" height="784.144" filterUnits="userSpaceOnUse" color-interpolation-filters="sRGB">
<feFlood flood-opacity="0" result="BackgroundImageFix"/>
<feBlend mode="normal" in="SourceGraphic" in2="BackgroundImageFix" result="shape"/>
<feGaussianBlur stdDeviation="37.1847" result="effect1_foregroundBlur_142_4835"/>
</filter>
<linearGradient id="paint0_linear_142_4835" x1="1128.18" y1="548.054" x2="446.314" y2="989.784" gradientUnits="userSpaceOnUse">
<stop stop-color="#C4C4C4" stop-opacity="0"/>
<stop offset="0.494792" stop-color="#C4C4C4"/>
<stop offset="0.989967" stop-color="#C4C4C4" stop-opacity="0"/>
</linearGradient>
<linearGradient id="paint1_linear_142_4835" x1="624.914" y1="668.714" x2="911.684" y2="948.477" gradientUnits="userSpaceOnUse">
<stop stop-color="#C4C4C4"/>
<stop offset="1" stop-color="#C4C4C4" stop-opacity="0"/>
</linearGradient>
<linearGradient id="paint2_linear_142_4835" x1="653.566" y1="-256.51" x2="1321.95" y2="268.922" gradientUnits="userSpaceOnUse">
<stop stop-color="#C4C4C4" stop-opacity="0"/>
<stop offset="0.430547" stop-color="#C4C4C4"/>
<stop offset="0.498519" stop-color="#C4C4C4"/>
<stop offset="1" stop-color="#C4C4C4" stop-opacity="0"/>
</linearGradient>
<linearGradient id="paint3_linear_142_4835" x1="589.393" y1="411.488" x2="1138.65" y2="-99.7067" gradientUnits="userSpaceOnUse">
<stop stop-color="#C4C4C4"/>
<stop offset="1" stop-color="#C4C4C4" stop-opacity="0"/>
</linearGradient>
<linearGradient id="paint4_linear_142_4835" x1="717.108" y1="388.351" x2="1140.3" y2="-89.3194" gradientUnits="userSpaceOnUse">
<stop stop-color="#C4C4C4" stop-opacity="0"/>
<stop offset="0.11282" stop-color="#C4C4C4"/>
<stop offset="0.284305" stop-color="#C4C4C4"/>
<stop offset="1" stop-color="#C4C4C4" stop-opacity="0"/>
</linearGradient>
<linearGradient id="paint5_linear_142_4835" x1="726.534" y1="135.284" x2="840.957" y2="190.05" gradientUnits="userSpaceOnUse">
<stop offset="0.155373" stop-color="#C4C4C4"/>
<stop offset="1" stop-color="#C4C4C4" stop-opacity="0"/>
</linearGradient>
<clipPath id="clip0_142_4835">
<rect width="1440" height="900" fill="white"/>
</clipPath>
</defs>
</svg>
